<?xml version="1.0" encoding="UTF-8" standalone="no"?>
<svg
   width="360"
   height="240"
   viewBox="0 0 95.249997 63.500004"
   version="1.1"
   id="svg8"
   inkscape:version="1.1.2 (b8e25be833, 2022-02-05)"
   sodipodi:docname="LDRLogoWhiteBack.svg"
   inkscape:export-filename="K:\OneDrive_gdripoll\OneDrive\DERIO\_ARTE_\DR-Logo\DR-Logo-azul.png"
   inkscape:export-xdpi="96"
   inkscape:export-ydpi="96"
   xmlns:inkscape="http://www.inkscape.org/namespaces/inkscape"
   xmlns:sodipodi="http://sodipodi.sourceforge.net/DTD/sodipodi-0.dtd"
   xmlns="http://www.w3.org/2000/svg"
   xmlns:svg="http://www.w3.org/2000/svg"
   xmlns:rdf="http://www.w3.org/1999/02/22-rdf-syntax-ns#"
   xmlns:cc="http://creativecommons.org/ns#"
   xmlns:dc="http://purl.org/dc/elements/1.1/">
  <defs
     id="defs2">
    <rect
       x="169.38705"
       y="890.20935"
       width="448.81387"
       height="96.439346"
       id="rect3993" />
    <marker
       style="overflow:visible"
       id="DiamondL"
       refX="0"
       refY="0"
       orient="auto"
       inkscape:stockid="DiamondL"
       inkscape:isstock="true">
      <path
         transform="scale(0.8)"
         style="fill:context-stroke;fill-rule:evenodd;stroke:context-stroke;stroke-width:1pt"
         d="M 0,-7.0710768 -7.0710894,0 0,7.0710589 7.0710462,0 Z"
         id="path2535" />
    </marker>
    <marker
       style="overflow:visible"
       id="Arrow1Mstart"
       refX="0"
       refY="0"
       orient="auto"
       inkscape:stockid="Arrow1Mstart"
       inkscape:isstock="true">
      <path
         transform="matrix(0.4,0,0,0.4,4,0)"
         style="fill:context-stroke;fill-rule:evenodd;stroke:context-stroke;stroke-width:1pt"
         d="M 0,0 5,-5 -12.5,0 5,5 Z"
         id="path2462" />
    </marker>
  </defs>
  <sodipodi:namedview
     id="base"
     pagecolor="#ffffff"
     bordercolor="#666666"
     borderopacity="1.0"
     inkscape:pageopacity="0"
     inkscape:pageshadow="2"
     inkscape:zoom="2.8972222"
     inkscape:cx="180"
     inkscape:cy="120.11505"
     inkscape:document-units="mm"
     inkscape:current-layer="layer2"
     inkscape:document-rotation="0"
     showgrid="false"
     inkscape:window-width="1920"
     inkscape:window-height="1057"
     inkscape:window-x="-1928"
     inkscape:window-y="-8"
     inkscape:window-maximized="1"
     showguides="true"
     inkscape:guide-bbox="true"
     inkscape:pagecheckerboard="true"
     units="px"
     gridtolerance="10" />
  <metadata
     id="metadata5">
    <rdf:RDF>
      <cc:Work
         rdf:about="">
        <dc:format>image/svg+xml</dc:format>
        <dc:type
           rdf:resource="http://purl.org/dc/dcmitype/StillImage" />
      </cc:Work>
    </rdf:RDF>
  </metadata>
  <g
     inkscape:groupmode="layer"
     id="layer2"
     inkscape:label="Textos"
     style="opacity:1">
    <path
       style="display:inline;fill:#317ce7;fill-opacity:1;stroke:none;stroke-width:0.329279;stroke-miterlimit:4;stroke-dasharray:none;stroke-opacity:0.7"
       d="M 47.624982,2.1238193 C 48.628561,7.3286075 53.175656,13.404059 55.932718,17.908495 48.268831,17.303682 41.778562,14.241466 34.609546,11.816167 35.976721,10.120279 38.896326,7.4404802 38.763405,5.1699833 36.710841,6.3563195 34.438958,10.384188 32.117228,10.600747 30.920361,10.712348 29.328878,9.7040614 28.240286,9.2684584 26.081936,8.4050055 23.566351,7.730419 21.610441,6.4568485 20.668069,5.8434585 20.699913,4.6349701 19.844771,4.0700418 18.601652,3.248679 15.197147,3.6676623 13.852406,4.1254431 11.785245,4.8293849 12.724297,8.0752075 11.331671,9.6007914 8.8397942,12.330435 4.223938,15.898606 3.1833401,19.570047 2.570286,21.73282 4.1278724,24.998292 4.7931576,27.046962 6.8979488,33.528894 9.7175662,39.111678 13.009446,45.046989 l -9.4154245,0.553848 v 0.276924 l 11.3497385,2.198229 4.434946,4.724871 c -6.125012,0 -12.2575033,0.494306 -18.2770022,1.661544 v 0.276933 c 6.9633381,0 14.4698452,-0.500966 21.3231722,0.905814 1.363294,0.27969 2.533027,1.19936 3.876934,1.586493 v 0.276933 c -2.070837,0.279146 -5.913711,1.014929 -7.200031,2.76924 10.11688,-2.617484 20.770711,-1.290191 31.015515,-0.841581 7.130812,0.312099 14.199849,-0.819963 21.323166,-0.819963 V 58.33935 C 65.842445,56.561216 59.266046,56.677797 53.4404,56.677797 V 56.40089 l 18.276995,-1.662664 5.562854,-0.130979 0.806405,4.562875 -4.984635,1.384628 0.02383,0.776951 18.339624,0.02643 C 90.028521,60.72204 88.245089,59.326315 86.973179,58.450119 84.836975,56.979096 83.619896,54.684233 80.855923,54.185481 V 53.908566 L 91.932895,52.523937 V 51.970089 L 79.194372,51.693174 v -0.276916 l 5.815412,-1.532763 9.138512,-1.236469 V 48.370094 L 87.502102,47.53933 c 0.926311,-3.900479 3.163033,-7.472791 4.270453,-11.353884 0.644953,-2.260256 1.185242,-4.566472 1.271079,-6.923084 0.09692,-2.663434 0.957598,-6.735863 -0.79034,-9.076134 -1.538873,-2.06031 -6.60271,-1.723572 -8.905057,-1.723852 C 77.104433,18.462104 70.729075,18.82348 64.517382,18.232522 62.89876,18.078559 60.803546,18.612469 59.281579,17.979973 57.831886,17.3774 56.988929,15.283026 56.194985,14.031592 54.067384,10.679148 51.203141,3.9518305 47.625005,2.123844 M 18.824878,5.446932 c 0,13.514467 1.904135,26.45174 6.092338,39.32315 L 22.4249,41.44701 h -0.276926 l 8.307731,15.230804 C 26.445264,56.310881 23.300515,48.63178 21.871024,45.323913 16.376846,32.608689 14.117142,19.522137 14.117142,5.723856 h 1.107697 l 0.553852,4.1538674 H 16.05561 L 16.332535,5.446932 h 2.49232 m -1.938468,8.861575 c -0.410957,3.252466 -0.23982,6.372002 1.107696,9.415392 h 0.276927 c -0.0019,-2.822402 -0.0382,-6.887349 -1.384623,-9.415392 m 4.153866,1.107696 13.292364,5.80071 6.646182,2.506986 -3.046164,1.938451 9.138506,-2.215375 v 0.276924 l -1.938482,1.384612 c 4.485349,0.366364 9.116079,2.241685 13.569294,3.1007 2.158076,0.416201 3.945616,0.337018 4.707712,2.714671 L 50.948083,29.262346 v 0.276932 l 13.846206,3.323063 v 0.276924 c -11.851808,0 -24.107088,-2.599191 -35.169384,-6.870736 -1.992746,-0.769287 -6.244085,-1.619157 -7.480281,-3.451556 -0.692586,-1.026825 -0.807782,-2.87307 -1.032093,-4.077698 -0.206033,-1.106017 -0.513419,-2.261895 -0.07228,-3.323072 m -8.030803,2.215384 c 0.01609,1.947326 0.847941,4.183479 0.475756,6.092312 -0.470776,2.412828 -3.8219988,5.29697 -5.737318,6.646135 -0.7129732,-1.608357 -2.8650867,-5.912575 -0.2715815,-6.825313 1.0173077,-0.35805 2.5294825,0.369147 3.5946705,0.456102 l -2.2153918,-1.93846 v -0.276932 l 4.1538648,-4.153844 m 71.723386,2.4923 v 0.276932 L 68.11738,21.508507 v 0.276924 c 6.547599,1.5588 14.079108,0.276932 20.769319,0.276932 v 0.276924 c -2.712752,1.419499 -5.383959,0.975038 -8.30773,0.276908 l 2.492312,1.384628 v 0.276916 C 77.2797,24.526419 71.877748,24.115461 66.178907,22.893127 63.847222,22.393001 61.108714,22.027739 59.809671,19.846979 l 24.923166,0.276908 m -58.707944,0.83078 c 0.147045,4.52574 4.037002,0.636637 0,0 m 2.769241,0.55384 1.1077,1.38462 -1.1077,-1.38462 m -6.09233,3.876911 c 10.609247,4.115911 21.444194,8.020811 32.954002,8.584611 3.963047,0.194127 10.223196,-0.848495 11.630801,3.600012 L 53.4404,38.123889 v 0.276924 l 11.630807,0.830772 v 0.276933 C 55.014153,41.37554 43.416299,39.91228 33.501846,37.788543 30.39144,37.122542 24.430641,36.098467 24.086421,32.308502 l 5.538484,0.553839 v -0.276924 c -3.93204,-0.813871 -7.606276,-2.466278 -6.923101,-7.199999 m -8.584662,1.107696 c 0.712806,2.536061 2.938722,7.71617 2.272718,10.246163 -0.440584,1.672888 -2.107393,3.316997 -3.103489,4.707717 H 12.73252 c -1.120463,-2.141197 -0.878681,-3.494783 -0.830771,-5.815413 l -1.107696,1.661544 H 10.517127 L 8.4478972,31.80561 14.117142,26.493114 m 75.877249,0.553848 c -3.537145,4.580022 -12.508936,4.431039 -17.723143,4.430768 -2.228427,-2.72e-4 -5.323317,0.362215 -6.369265,-1.938452 l 16.615448,0.148703 7.47696,-2.641019 m -71.169536,1.38462 -0.553845,1.661536 c 0.815819,-0.452504 1.093571,-0.847672 0.553845,-1.661536 m 0.276925,2.215376 0.276926,1.107687 h 0.276926 V 30.646958 H 19.10178 m 72.000311,0.276924 -4.707701,14.676947 h -0.276935 c 0.559946,-4.154667 2.449954,-11.324241 4.984636,-14.676947 m -6.646177,1.938459 v 0.276924 l -9.969277,3.156934 -3.848137,0.50593 -1.690358,-2.278252 15.507772,-1.661536 m -45.692509,1.107688 v 0.276924 c 2.59589,1.367728 5.67086,1.936526 8.584659,1.938468 V 35.908505 L 38.763405,33.970029 M 25.47104,37.016201 c 9.170075,4.88356 23.10435,5.427719 33.230913,4.232781 2.824072,-0.333124 10.375798,-2.225361 11.353895,1.028784 l -20.769313,3.599995 v 0.276933 l 14.676972,-0.276933 v 0.276933 c -9.460832,1.951762 -19.196378,2.59948 -28.80012,1.224277 C 33.29775,47.111744 30.779683,47.0666 29.130041,46.070785 27.267727,44.946469 25.207131,39.113901 25.47104,37.016201 m 55.107932,0.830772 v 0.276916 c -2.192968,1.023516 -6.827572,4.464033 -8.584653,1.661553 l 8.584653,-1.938469 m -63.138741,0.830764 c 1.503152,3.896603 3.044236,6.254877 1.384623,10.246205 -1.488744,-0.708931 -5.355438,-4.764213 -5.017591,-6.599106 0.242588,-1.317323 2.596723,-2.917119 3.632968,-3.647099 m 13.292374,5.53848 v 0.276924 c 3.386785,0.776499 6.458426,1.827979 9.96927,1.38462 -2.869484,-1.536928 -6.789344,-1.661544 -9.96927,-1.661544 m 39.323243,2.215401 v 0.276915 c -3.379583,1.31124 -6.831999,3.162194 -10.523118,3.323097 l 1.384623,1.938459 c -6.823693,-1.862585 -14.211485,0.833547 -21.323172,0.830781 -3.509192,-8.24e-4 -7.484436,-0.607027 -9.1385,-4.15386 13.693068,2.655416 26.113964,-0.473817 39.600167,-2.215392 m -48.738668,1.107687 0.553844,1.938477 -2.215392,-0.276924 1.661548,-1.661553"
       id="path834"
       inkscape:label="bote"
       inkscape:export-xdpi="10.35218"
       inkscape:export-ydpi="10.35218"
       sodipodi:nodetypes="cccccccccccccccccccccccccccccccccccccccccccccscccccccccccccccccccccccccccccccccccccccccccccccccccccccccsccccccccscccccccccccccccccccccccccccccccccccccccccccccccccccccccccccccccccccccccccccccccc" />
  </g>
</svg>
