<?xml version="1.0" encoding="UTF-8" standalone="no"?>
<svg
   width="1080"
   height="1080"
   viewBox="0 0 285.75 285.75"
   version="1.1"
   id="svg8"
   inkscape:version="1.1.2 (b8e25be833, 2022-02-05)"
   sodipodi:docname="DR-Logo-azul.svg"
   inkscape:export-filename="K:\OneDrive_gdripoll\OneDrive\DERIO\_ARTE_\DR-Logo\DR-Logo-azul.png"
   inkscape:export-xdpi="96"
   inkscape:export-ydpi="96"
   xmlns:inkscape="http://www.inkscape.org/namespaces/inkscape"
   xmlns:sodipodi="http://sodipodi.sourceforge.net/DTD/sodipodi-0.dtd"
   xmlns="http://www.w3.org/2000/svg"
   xmlns:svg="http://www.w3.org/2000/svg"
   xmlns:rdf="http://www.w3.org/1999/02/22-rdf-syntax-ns#"
   xmlns:cc="http://creativecommons.org/ns#"
   xmlns:dc="http://purl.org/dc/elements/1.1/">
  <defs
     id="defs2" />
  <sodipodi:namedview
     id="base"
     pagecolor="#ffffff"
     bordercolor="#666666"
     borderopacity="1.0"
     inkscape:pageopacity="0"
     inkscape:pageshadow="2"
     inkscape:zoom="0.80277778"
     inkscape:cx="497.64706"
     inkscape:cy="540.62284"
     inkscape:document-units="mm"
     inkscape:current-layer="layer2"
     inkscape:document-rotation="0"
     showgrid="false"
     inkscape:window-width="1920"
     inkscape:window-height="1009"
     inkscape:window-x="-8"
     inkscape:window-y="-8"
     inkscape:window-maximized="1"
     showguides="true"
     inkscape:guide-bbox="true"
     inkscape:pagecheckerboard="false"
     units="px" />
  <metadata
     id="metadata5">
    <rdf:RDF>
      <cc:Work
         rdf:about="">
        <dc:format>image/svg+xml</dc:format>
        <dc:type
           rdf:resource="http://purl.org/dc/dcmitype/StillImage" />
      </cc:Work>
    </rdf:RDF>
  </metadata>
  <g
     inkscape:label="Imagen"
     inkscape:groupmode="layer"
     id="layer1" />
  <g
     inkscape:groupmode="layer"
     id="layer2"
     inkscape:label="Textos">
    <g
       id="g839"
       transform="translate(0,27.742003)">
      <path
         id="path842"
         style="fill:none;fill-opacity:1;stroke:#317ce7;stroke-width:14.5034;stroke-miterlimit:4;stroke-dasharray:none;stroke-opacity:1"
         inkscape:label="circulo"
         d="m 249.21881,209.7642 c 11.1061,-18.8997 16.97474,-40.41777 17.00179,-62.33907 C 266.22051,79.303274 210.99686,24.07962 142.875,24.079531 74.753145,24.07962 19.529492,79.303274 19.529404,147.42513 c 0.02705,21.9213 5.895687,43.43937 17.00179,62.33907"
         sodipodi:nodetypes="ccccc"
         inkscape:export-xdpi="10.35218"
         inkscape:export-ydpi="10.35218" />
      <path
         style="display:inline;fill:#317ce7;fill-opacity:1;stroke:none;stroke-width:0.560278"
         d="m 142.87499,54.498429 c 2.03044,10.530402 11.23018,22.822307 16.80831,31.935755 -15.50567,-1.223655 -28.63686,-7.41917 -43.14131,-12.326077 2.76609,-3.431132 8.67308,-8.852928 8.40415,-13.446643 -4.15277,2.400225 -8.74928,10.549459 -13.44664,10.987592 -2.42151,0.225792 -5.64142,-1.814185 -7.84387,-2.695501 -4.366797,-1.74694 -9.456347,-3.111764 -13.413579,-5.688483 -1.906621,-1.241008 -1.842191,-3.686052 -3.572324,-4.829022 -2.515082,-1.661782 -9.403122,-0.814088 -12.123825,0.11212 -4.182297,1.424221 -2.282398,7.991226 -5.099975,11.077785 -5.041591,5.522646 -14.380451,12.741808 -16.485802,20.169926 -1.240341,4.375739 1.910992,10.982489 3.257001,15.127389 4.258437,13.11432 9.963119,24.40948 16.623294,36.41786 l -19.049405,1.12055 v 0.56028 l 22.962938,4.44748 8.972829,9.55943 c -12.392198,0 -24.799523,1.00008 -36.978256,3.36165 v 0.56029 c 14.088323,0 29.275574,-1.01356 43.141297,1.83266 2.75824,0.56587 5.12485,2.42656 7.84387,3.20981 v 0.56029 c -4.18975,0.56476 -11.964703,2.05342 -14.567189,5.60277 20.468586,-5.29574 42.023546,-2.61034 62.750966,-1.7027 14.42713,0.63144 28.72931,-1.65897 43.1413,-1.65897 v -0.56028 c -11.32599,-3.59754 -24.63144,-3.36167 -36.41796,-3.36167 v -0.56025 l 36.97824,-3.36391 11.25484,-0.26501 1.63153,9.23167 -10.08498,2.80139 v 0.56028 c 8.69493,1.61975 18.1199,1.69706 26.89328,0.64711 3.41264,-0.40845 7.76319,-0.32551 10.64525,-2.32794 -2.90727,-1.28695 -6.90092,-1.36483 -9.47427,-3.13756 -4.32199,-2.97618 -6.7844,-7.61919 -12.37651,-8.62826 v -0.56026 l 22.41106,-2.80139 v -1.12056 l -25.77272,-0.56028 v -0.56027 l 11.7658,-3.10111 18.48914,-2.50163 v -0.56029 l -13.44665,-1.68082 c 1.87412,-7.89149 6.39948,-15.11904 8.64003,-22.97131 1.30488,-4.57297 2.39799,-9.23894 2.57166,-14.00687 0.1961,-5.38869 1.93743,-13.628075 -1.59902,-18.362953 -3.11346,-4.168427 -13.35868,-3.487152 -18.01682,-3.487713 -12.63255,-5.45e-4 -25.53124,0.730604 -38.09881,-0.465032 -3.27482,-0.311504 -7.51388,0.768715 -10.59315,-0.510968 -2.93304,-1.21913 -4.63852,-5.456509 -6.24484,-7.988395 -4.30459,-6.782712 -10.09956,-20.39351 -17.33888,-24.091902 m -58.268762,6.723314 c 0,27.342605 3.852462,53.517459 12.326085,79.559049 l -5.04249,-6.72327 h -0.560276 l 16.808293,30.81514 C 100.02392,164.1303 93.661423,148.59385 90.769271,141.90135 79.653384,116.17575 75.081526,89.69889 75.081526,61.782025 h 2.241106 l 1.120555,8.404153 h 0.560274 l 0.560278,-8.964434 h 5.042489 m -3.921935,17.928852 c -0.831452,6.580432 -0.485201,12.891924 2.241106,19.049322 h 0.560277 c -0.004,-5.710316 -0.07731,-13.934553 -2.801383,-19.049322 m 8.404147,2.241105 26.89327,11.736069 13.44664,5.072148 -6.16304,3.921912 18.48913,-4.482177 v 0.560265 l -3.92195,2.801372 c 9.07481,0.74125 18.44376,4.53541 27.45356,6.27338 4.36625,0.84208 7.98283,0.68185 9.52471,5.49237 l -25.21245,-3.36165 v 0.56028 l 28.01384,6.72327 v 0.56027 c -23.97873,0 -48.77377,-5.25872 -71.15514,-13.90094 -4.03175,-1.55644 -12.633107,-3.27591 -15.134186,-6.983246 -1.401252,-2.077485 -1.634327,-5.812832 -2.088152,-8.25004 -0.416845,-2.237716 -1.038752,-4.576297 -0.146224,-6.723283 m -16.24802,4.482202 c 0.03249,3.939848 1.715565,8.464055 0.962555,12.326015 -0.952469,4.881672 -7.732714,10.716912 -11.607811,13.446572 -1.442488,-3.25407 -5.796678,-11.962414 -0.549463,-13.809072 2.058232,-0.724418 5.11768,0.746855 7.272782,0.922776 l -4.482213,-3.92191 v -0.560281 l 8.40415,-8.4041 m 145.111632,5.04245 v 0.560281 l -33.61659,2.241093 v 0.560276 c 13.24718,3.153793 28.48502,0.560281 42.02073,0.560281 v 0.560276 c -5.48847,2.871954 -10.89288,1.972721 -16.80829,0.56026 l 5.04248,2.801374 v 0.560276 c -11.71762,0.503115 -22.64691,-0.328327 -34.17687,-2.801369 -4.7175,-1.011866 -10.25808,-1.750852 -12.88633,-6.163008 l 50.42487,0.56026 M 99.173423,92.597186 c 0.29751,9.156534 8.167717,1.288065 0,0 m 5.602767,1.120541 2.24111,2.801374 -2.24111,-2.801374 m -12.326077,7.843823 c 21.464747,8.32735 43.386147,16.22778 66.672927,17.36848 8.01809,0.39276 20.68372,-1.71667 23.5316,7.2836 l -28.01383,1.12054 v 0.56028 l 23.5316,1.68083 v 0.56028 c -20.34757,3.77739 -43.81249,0.8169 -63.87152,-3.47988 -6.29302,-1.34746 -18.352977,-3.41936 -19.049397,-11.08728 l 11.205527,1.12054 v -0.56028 c -7.955367,-1.64663 -15.389122,-4.98979 -14.006917,-14.56711 m -17.368577,2.24109 c 1.442153,5.131 5.945655,15.61146 4.598189,20.73016 -0.891399,3.38462 -4.263703,6.711 -6.279017,9.52471 h -1.120556 c -2.266933,-4.33208 -1.777757,-7.07069 -1.680828,-11.76582 l -2.241107,3.36167 h -0.560276 l -4.186498,-11.10242 11.470093,-10.7483 M 228.5973,104.9232 c -7.1564,9.26636 -25.30823,8.96492 -35.85768,8.96438 -4.50857,-5.6e-4 -10.7702,0.73283 -12.88637,-3.92191 l 33.61658,0.30086 15.12747,-5.34333 m -143.991072,2.80137 -1.120552,3.36164 c 1.650574,-0.9155 2.212531,-1.715 1.120552,-3.36164 m 0.560276,4.48219 0.560278,2.24108 h 0.560276 v -2.24108 h -1.120554 m 145.671906,0.56028 -9.52469,29.69457 h -0.56028 c 1.13288,-8.40578 4.95677,-22.91135 10.08497,-29.69457 m -13.44663,3.9219 v 0.56027 l -20.16995,6.38716 -7.78561,1.0236 -3.41994,-4.60938 31.3755,-3.36165 m -92.44564,2.24109 v 0.56028 c 5.25203,2.7672 11.47335,3.918 17.36858,3.92193 v -0.56027 l -17.36858,-3.92194 m -26.893277,6.16305 c 18.552997,9.88048 46.744997,10.98142 67.233187,8.56382 5.71371,-0.674 20.99245,-4.50239 22.97134,2.08144 l -42.02073,7.28355 v 0.56029 l 29.69464,-0.56029 v 0.56029 c -19.14128,3.94884 -38.83836,5.25931 -58.26876,2.47698 -3.77458,-0.54067 -8.86917,-0.63198 -12.20674,-2.64674 -3.76786,-2.27473 -7.936877,-14.07526 -7.402937,-18.31934 m 111.495047,1.68083 v 0.56026 c -4.43684,2.0708 -13.81363,9.03168 -17.36857,3.36167 l 17.36857,-3.92193 m -127.743065,1.68081 c 3.041182,7.88366 6.15912,12.65496 2.801383,20.73023 -3.012046,-1.43431 -10.835189,-9.639 -10.151651,-13.35137 0.490802,-2.66523 5.253713,-5.90195 7.350268,-7.37886 m 26.893275,11.20552 v 0.56027 c 6.85218,1.57103 13.06677,3.69839 20.16996,2.80138 -5.80559,-3.10953 -13.7363,-3.36165 -20.16996,-3.36165 m 79.55927,4.48222 v 0.56026 c -6.83761,2.65292 -13.82258,6.3978 -21.2905,6.72334 l 2.80139,3.9219 c -13.80578,-3.7684 -28.75285,1.68644 -43.14131,1.68085 -7.09983,-0.003 -15.1426,-1.22813 -18.48913,-8.40414 27.70399,5.37247 52.83409,-0.95863 80.11955,-4.48221 m -98.608672,2.2411 1.120553,3.92194 -4.482213,-0.56028 3.36166,-3.36166 m 27.453552,33.05631 v 0.56026 c 14.59409,0 29.0862,1.12056 43.70156,1.12056 8.23889,0 17.38764,0.13446 25.21245,-2.80139 -4.76683,-2.00018 -11.66663,-0.7261 -16.80828,-1.21579 -17.66834,-1.68138 -34.72372,-1.25109 -52.10573,2.33636 z"
         id="path834"
         inkscape:label="bote"
         inkscape:export-xdpi="10.35218"
         inkscape:export-ydpi="10.35218" />
      <text
         xml:space="preserve"
         style="font-style:normal;font-variant:normal;font-weight:normal;font-stretch:normal;font-size:32.244px;line-height:1.25;font-family:Impact;-inkscape-font-specification:'Impact, Normal';font-variant-ligatures:normal;font-variant-caps:normal;font-variant-numeric:normal;font-variant-east-asian:normal;letter-spacing:0px;word-spacing:0px;fill:#317ce7;fill-opacity:1;stroke-width:0.365343"
         x="40.593685"
         y="229.50027"
         id="text833"
         inkscape:label="DERIO.com.ar"
         transform="scale(1.0948886,0.91333492)"
         inkscape:export-xdpi="10.35218"
         inkscape:export-ydpi="10.35218"><tspan
           sodipodi:role="line"
           id="tspan831"
           x="40.593685"
           y="229.50027"
           style="font-style:normal;font-variant:normal;font-weight:normal;font-stretch:normal;font-size:32.244px;font-family:Impact;-inkscape-font-specification:'Impact, Normal';font-variant-ligatures:normal;font-variant-caps:normal;font-variant-numeric:normal;font-variant-east-asian:normal;fill:#317ce7;fill-opacity:1;stroke-width:0.365343">DERIO.COM.AR</tspan></text>
    </g>
  </g>
</svg>
