<?xml version="1.0" encoding="UTF-8" standalone="no"?>
<!-- Created with Inkscape (http://www.inkscape.org/) -->

<svg
   width="200mm"
   height="200mm"
   viewBox="0 0 200 200"
   version="1.1"
   id="svg5"
   inkscape:version="1.1.2 (b8e25be833, 2022-02-05)"
   sodipodi:docname="TDRLogo-04.svg"
   inkscape:export-filename="C:\WORK\DERIO\ar.com.derio\src\assets\TDRLogo.png"
   inkscape:export-xdpi="40.577354"
   inkscape:export-ydpi="40.577354"
   xmlns:inkscape="http://www.inkscape.org/namespaces/inkscape"
   xmlns:sodipodi="http://sodipodi.sourceforge.net/DTD/sodipodi-0.dtd"
   xmlns:xlink="http://www.w3.org/1999/xlink"
   xmlns="http://www.w3.org/2000/svg"
   xmlns:svg="http://www.w3.org/2000/svg">
  <sodipodi:namedview
     id="namedview7"
     pagecolor="#ffffff"
     bordercolor="#000000"
     borderopacity="0.25"
     inkscape:pageshadow="2"
     inkscape:pageopacity="0.0"
     inkscape:pagecheckerboard="true"
     inkscape:document-units="mm"
     showgrid="false"
     inkscape:zoom="1.1218333"
     inkscape:cx="364.1361"
     inkscape:cy="368.14739"
     inkscape:window-width="1920"
     inkscape:window-height="1057"
     inkscape:window-x="-8"
     inkscape:window-y="-8"
     inkscape:window-maximized="1"
     inkscape:current-layer="layer1" />
  <defs
     id="defs2" />
  <g
     inkscape:label="Capa 1"
     inkscape:groupmode="layer"
     id="layer1">
    <path
       style="display:none;opacity:1;fill:#244284;fill-opacity:0.777538;stroke:#244284;stroke-width:1.02338;stroke-miterlimit:4;stroke-dasharray:none;stroke-opacity:1"
       id="path12704"
       sodipodi:type="arc"
       sodipodi:cx="100"
       sodipodi:cy="114.47784"
       sodipodi:rx="77.142105"
       sodipodi:ry="77.142105"
       sodipodi:start="3.1415927"
       sodipodi:end="0"
       sodipodi:open="true"
       sodipodi:arc-type="arc"
       d="M 22.857895,114.47784 A 77.142105,77.142105 0 0 1 100,37.335732 77.142105,77.142105 0 0 1 177.14211,114.47784" />
    <text
       xml:space="preserve"
       style="font-size:27.056px;font-family:Impact;-inkscape-font-specification:'Impact, Normal';text-align:center;text-anchor:middle;opacity:1;fill:#317ce7;fill-opacity:0.799587;stroke:#317ce7;stroke-width:1;stroke-miterlimit:4;stroke-dasharray:none;stroke-opacity:1"
       id="text11836"
       transform="translate(1.1792453,-8.0188679)"><textPath
         xlink:href="#path12704"
         startOffset="50%"
         id="textPath14153"><tspan
           id="tspan11834"
           style="text-align:center;text-anchor:middle;fill:#317ce7;fill-opacity:0.799587;stroke:#317ce7;stroke-width:1;stroke-miterlimit:4;stroke-dasharray:none;stroke-opacity:1">TALLERES DE RíO</tspan></textPath></text>
    <path
       id="path1130"
       style="display:inline;opacity:1;fill:#317ce7;fill-opacity:1;stroke:#317ce7;stroke-width:0.3;stroke-miterlimit:4;stroke-dasharray:none;stroke-opacity:1"
       d="m 90.039688,24.633473 c -2.781109,13.543205 -14.85778,24.56096 -24.298774,34.091458 7.003711,3.614142 10.2725,10.607265 13.253971,17.595826 L 62.42742,57.625257 c 1.20822,7.637973 -3.38736,15.030261 -6.185151,21.994523 -6.815831,16.966655 -13.992892,33.43087 -24.740611,48.38831 l 30.925762,8.79792 v 1.09967 l -33.134411,-8.79791 c 8.729814,7.66513 27.438384,9.16623 38.657072,11.95844 9.253776,2.30394 16.473805,2.47689 16.567462,13.33562 l -35.183381,-4.13101 -14.51901,-10.16579 v 1.09967 c 6.527112,6.52471 8.831829,19.84803 7.73131,28.59309 33.842449,4.39892 67.267148,-9.30906 100.509108,-3.29902 4.14736,-19.07044 24.25576,-25.35867 40.86624,-30.79244 -2.22998,11.14578 -14.78809,30.69467 -26.50897,33.64963 -13.85147,3.49276 -29.95059,-0.86688 -44.1787,1.07745 -21.411716,2.9264 -47.424763,9.68209 -68.47851,1.45831 C 36.699665,168.74429 30.025516,160.04958 25.072078,153.30164 9.0595774,131.48627 3.5743747,102.48007 10.459016,76.320757 11.804074,71.209856 12.742627,68.107775 14.924582,63.32083 L 12.459411,61.444662 C -15.409504,125.68832 38.500599,203.74529 113.23414,193.50487 c 12.97562,-1.77717 25.25107,-6.20496 36.44842,-12.94081 10.82626,-6.51262 19.96278,-14.87793 27.41589,-25.06256 21.00875,-28.70756 22.26115,-62.737442 10.30945,-91.226518 l -2.51364,1.573844 c 3.63683,8.375068 5.8874,15.979577 6.96453,25.867889 1.24035,11.383335 -0.005,23.080475 -3.38325,34.090995 -1.81467,5.91766 -9.89626,15.451 -17.0832,10.1415 -17.5504,-12.96582 -25.34014,-38.139596 -42.69506,-51.930216 l 9.94047,30.792486 h -1.10484 L 123.17462,90.617041 h -1.10433 c 2.96778,16.274959 4.08205,35.357439 1.10433,51.687339 l 26.50794,1.09967 c -8.79728,5.01038 -23.09067,7.54324 -33.13493,6.59856 l 2.20917,-52.787004 -2.20917,3.299024 -16.567464,-15.395961 15.463134,10.997263 1.10433,-9.897589 h 1.10484 v 9.897589 h 1.10433 l 1.10432,-41.789699 h -1.10432 l -1.10433,16.495636 h -1.10484 c -0.66821,-12.713682 -3.76512,-19.035694 -14.3583,-26.393222 0,20.041274 -3.478177,38.522486 -5.306133,58.285343 -1.288949,13.9457 -0.773202,29.956 -6.843509,42.88993 H 115.4433 c -0.84274,7.53535 -24.474464,12.69292 -27.924906,6.14071 -2.991403,-5.6812 -0.238656,-15.47986 0.185518,-21.53719 1.1288,-16.10996 -0.129339,-32.258541 1.231451,-48.388311 h -2.209168 v 5.498889 h -1.104326 l 2.209168,-53.88715 h 1.104326 l -2.209168,47.288587 h 3.313493 L 91.14453,24.633473 Z M 34.815152,140.10503 31.501658,139.00535 v 1.09968 z M 117.65247,73.021218 v 6.598562 h -1.10484 z M 85.621869,88.417692 c 4.551627,16.658758 -0.207065,37.917408 -1.104326,54.986358 -4.472321,-3.297 -2.919603,-8.27421 -2.118733,-13.19661 2.096641,-12.88773 -1.249145,-29.87416 3.223059,-41.789748 z m 61.851521,6.598565 1.10484,1.099675 z m 2.20917,4.398699 1.10432,1.099674 z m -33.13493,3.299034 v 19.79521 h -1.10433 z m 47.49322,21.99508 1.10485,1.09967 z m -16.56746,6.59805 c 8.40077,0.0494 15.00922,2.06878 22.09013,6.59856 l -15.46314,5.49837 z m -32.03009,6.59856 v 5.49837 h -1.10432 z m -50.806712,0.36638 c 0.85422,0 0.177249,0.54726 -0.367938,0.36691 z m 6.626984,0.73329 v 1.09968 h -3.313491 z m 2.209168,1.46606 0.367937,0.36742 c -0.545065,0.1803 -1.222158,-0.36742 -0.367937,-0.36742 z m 6.626987,0.73329 v 1.09968 h -3.313494 z"
       sodipodi:nodetypes="cccccccccccccccccccccccccsccccccccccccccccccccccccccccccccccccccccccccccccccccccccccccccccccccccccccccccccccccccccc" />
    <path
       style="display:none;fill:#244284;stroke:none;stroke-width:1.10211"
       d="m 301.82153,11.097335 c -12.95403,1.774974 -25.28604,6.17773 -36.44829,12.943395 -10.68983,6.479517 -20.06267,14.974155 -27.41871,25.061118 -48.47962,66.476772 8.43213,161.403382 90.37486,150.175112 12.97562,-1.77717 25.25095,-6.20468 36.4483,-12.94053 10.82626,-6.51262 19.96262,-14.87827 27.41574,-25.06289 C 440.81326,94.83659 383.6314,-0.11244636 301.82153,11.097335 m 41.97078,78.693691 9.94046,30.792484 h -1.10451 L 338.26985,96.389422 h -1.10451 c 2.96778,16.274918 4.08223,35.357448 1.10451,51.687348 l 26.50784,1.09975 c -8.79728,5.01038 -23.09055,7.54304 -33.13481,6.59837 l 2.209,-52.78709 -2.209,3.29919 -16.5674,-15.396239 15.46291,10.997319 1.10449,-9.897594 h 1.10449 v 9.897594 h 1.10451 l 1.10449,-41.789779 h -1.10449 l -1.10451,16.495967 h -1.10449 c -0.66821,-12.713681 -3.76523,-19.036034 -14.35841,-26.393561 0,20.041275 -3.47805,38.522927 -5.30601,58.285773 -1.28895,13.94567 -0.77313,29.95557 -6.84344,42.8895 h 25.40337 c -0.84274,7.53535 -24.47448,12.6931 -27.92492,6.14089 -2.99141,-5.6812 -0.23858,-15.4798 0.1856,-21.53713 1.1288,-16.10997 -0.12928,-32.25841 1.23151,-48.388177 h -2.209 v 5.498671 h -1.10449 l 2.209,-53.886846 h 1.10449 l -2.209,47.28845 h 3.31349 l 1.10451,-56.086295 h -1.10451 c -2.78111,13.543206 -14.85787,24.561182 -24.29887,34.091681 7.00372,3.614142 10.27248,10.607129 13.25395,17.595691 L 277.52272,63.397466 c 1.20822,7.637971 -3.38747,15.030376 -6.18526,21.994637 -6.81583,16.966657 -13.99283,33.430727 -24.74055,48.388177 l 30.92581,8.79784 v 1.09973 L 244.38791,134.88 c 8.72981,7.66514 27.4386,9.16627 38.65729,11.95848 9.25378,2.30394 16.47375,2.47661 16.56741,13.33534 l -35.18333,-4.1306 -14.51889,-10.1659 v 1.09973 c 6.52712,6.52471 8.83198,19.84795 7.73146,28.59301 33.84245,4.39892 67.26698,-9.30924 100.50894,-3.2992 4.14736,-19.07044 24.25578,-25.35869 40.86627,-30.79246 -2.22999,11.14578 -14.78808,30.69459 -26.50896,33.64955 -13.85146,3.49276 -29.95055,-0.86658 -44.17866,1.07775 -21.41171,2.9264 -47.42487,9.68203 -68.47861,1.45825 -8.05597,-3.14743 -14.7303,-11.84192 -19.68374,-18.58986 -16.0125,-21.81537 -21.49742,-50.82188 -14.61278,-76.981185 3.39257,-12.890934 9.49422,-24.943564 18.06686,-35.187762 52.85588,-63.162003 154.5929,-29.649529 163.33277,50.584004 1.24035,11.383323 -0.005,23.080053 -3.38307,34.090573 -1.81467,5.91766 -9.89626,15.45121 -17.0832,10.14171 -17.5504,-12.96582 -25.34039,-38.13978 -42.69531,-51.930404 m -9.94043,-45.088977 1.10448,3.299199 h 1.10449 v -3.299199 h -2.20897 m -2.209,2.19945 1.10449,1.099749 -1.10449,-1.099749 m 1.10449,31.892208 v 6.598396 h -1.10449 l 1.10449,-6.598396 m -37.55279,4.398923 -1.10448,1.099749 1.10448,-1.099749 m 36.08049,5.13212 -0.3689,0.733079 0.3689,-0.733079 m -30.55803,5.865199 c 4.55163,16.658741 -0.20722,37.917621 -1.10448,54.986571 -4.47233,-3.297 -2.91961,-8.27439 -2.11874,-13.19679 2.09664,-12.88774 -1.24898,-29.8742 3.22322,-41.789781 m 61.85167,6.598401 1.10449,1.09972 -1.10449,-1.09972 m 2.20898,4.39892 1.10451,1.09972 -1.10451,-1.09972 m -33.13481,3.2992 v 19.79514 h -1.10449 l 1.10449,-19.79514 m 47.49324,21.99461 1.10448,1.09973 -1.10448,-1.09973 m 5.52246,13.19677 -15.46292,5.49867 -6.62695,-12.09704 c 8.40077,0.0494 15.00897,2.06859 22.08987,6.59837 m -104.92691,0.36622 c 0.85422,0 0.17704,0.54766 -0.36814,0.36731 l 0.36814,-0.36731 m 50.80672,-0.36622 v 5.49867 h -1.10449 l 1.10449,-5.49867 m -83.94153,1.09975 v 1.09972 h 3.31348 l -3.31348,-1.09972 m 39.76178,0 v 1.09972 h -3.31349 l 3.31349,-1.09972 m 2.20897,1.46592 0.36814,0.36731 c -0.54507,0.1803 -1.22236,-0.36731 -0.36814,-0.36731 m 6.62697,0.73353 v 1.09972 h -3.31348 z"
       id="path7569" />
  </g>
</svg>
